<svg xmlns="http://www.w3.org/2000/svg" viewBox="0 0 154.37 36">
    <path d="M16,2.25A5.73,5.73,0,0,1,20,3.9a5.57,5.57,0,0,1,1.67,4V9H10.29V7.88A5.57,5.57,0,0,1,12,3.9,5.73,5.73,0,0,1,16,2.25ZM24,9V7.88a7.8,7.8,0,0,0-2.34-5.57,8.09,8.09,0,0,0-11.32,0A7.8,7.8,0,0,0,8,7.88V9H0V31.5a4.45,4.45,0,0,0,1.34,3.18A4.59,4.59,0,0,0,4.57,36H27.43a4.59,4.59,0,0,0,3.23-1.32A4.45,4.45,0,0,0,32,31.5V9ZM2.29,11.25H29.71V31.5A2.22,2.22,0,0,1,29,33.09a2.29,2.29,0,0,1-1.61.66H4.57A2.29,2.29,0,0,1,3,33.09a2.22,2.22,0,0,1-.67-1.59Z" style="fill:#06acf3"/>
    <path d="M15.76,20.48a2,2,0,1,1-2,2A2,2,0,0,1,15.76,20.48Zm-5,10.59c.69.41,2.19-.21,3.92-1.82a26.09,26.09,0,0,1-1.64-2,25.24,25.24,0,0,1-2.61-.38C9.83,29.12,10,30.7,10.72,31.07Zm.78-6.15-.32-.54a7.12,7.12,0,0,0-.31.92l1,.17Zm7.12-.81.88-1.61-.88-1.61c-.33-.56-.68-1.07-1-1.57-.59,0-1.21,0-1.87,0s-1.27,0-1.86,0c-.31.5-.66,1-1,1.57L12,22.5l.88,1.61c.33.56.68,1.07,1,1.57.59,0,1.21,0,1.86,0s1.28,0,1.87,0C17.94,25.18,18.29,24.67,18.62,24.11Zm-2.86-7.2c-.2.23-.42.48-.64.77h1.29C16.19,17.39,16,17.14,15.76,16.91Zm0,11.18c.21-.23.43-.48.65-.77H15.12C15.34,27.61,15.56,27.86,15.76,28.09Zm5-14.16c-.67-.41-2.17.21-3.9,1.82a26.09,26.09,0,0,1,1.64,2,24.1,24.1,0,0,1,2.61.38C21.7,15.88,21.49,14.3,20.79,13.93ZM20,20.08l.32.54a7.12,7.12,0,0,0,.31-.92l-1-.17Zm1.58-7.56c1.6.91,1.77,3.27,1.1,6,2.76.8,4.75,2.13,4.75,3.94s-2,3.14-4.75,3.94c.67,2.77.5,5.14-1.1,6s-3.76-.12-5.85-2.08c-2.09,2-4.25,3-5.85,2.08s-1.76-3.26-1.09-6c-2.76-.8-4.76-2.13-4.76-3.94s2-3.14,4.76-3.94c-.67-2.77-.5-5.13,1.09-6s3.76.13,5.85,2.09C17.85,12.65,20,11.62,21.61,12.52Zm-.32,10a23.49,23.49,0,0,1,1,2.42c2.29-.67,3.57-1.64,3.57-2.42s-1.28-1.75-3.57-2.42A23.49,23.49,0,0,1,21.29,22.5Zm-11.06,0a23.4,23.4,0,0,1-1-2.42C7,20.75,5.7,21.72,5.7,22.5S7,24.25,9.27,24.92A23.4,23.4,0,0,1,10.23,22.5ZM20,24.92l-.33.55,1-.17a7.12,7.12,0,0,0-.31-.92Zm-3.14,4.33c1.73,1.61,3.23,2.23,3.9,1.82s.91-1.95.35-4.24a24.1,24.1,0,0,1-2.61.38A26.09,26.09,0,0,1,16.89,29.25ZM11.5,20.08l.32-.55-1,.17a7.12,7.12,0,0,0,.31.92Zm3.14-4.33c-1.73-1.61-3.23-2.23-3.92-1.82s-.89,2-.33,4.24A25.24,25.24,0,0,1,13,17.79,26.09,26.09,0,0,1,14.64,15.75Z" style="fill:#06acf3"/>
    <path d="M43.54,33.34h-.8l6.53-17.67h.79ZM60.05,20.21a1.89,1.89,0,0,1,1.68.72,2.75,2.75,0,0,1,.53,1.7,2.41,2.41,0,0,1-.62,1.73,2.09,2.09,0,0,1-1.59.62,2.46,2.46,0,0,1-1.58-.45,1.6,1.6,0,0,1-.55-1.27A2.57,2.57,0,0,1,59.14,21a1.74,1.74,0,0,0-.77.17,2.38,2.38,0,0,0-1,.87A2.07,2.07,0,0,0,57,23.33v7.2a2.14,2.14,0,0,0,.45,1.56A2.51,2.51,0,0,0,59,32.5V33l-.53,0c-1.68,0-2.8-.08-3.36-.08s-1.6,0-3.33.08l-.51,0v-.5a1.28,1.28,0,0,0,1-.36,2.32,2.32,0,0,0,.31-1.37V23.16a3.26,3.26,0,0,0-.31-1.61,1.11,1.11,0,0,0-1-.5v-.51c.52.05,1,.08,1.49.08A22.07,22.07,0,0,0,57,20.28V22A3.19,3.19,0,0,1,60.05,20.21Zm10,10.51A3.47,3.47,0,0,0,73,29.11l.4.15a6.59,6.59,0,0,1-1.8,2.88,4.43,4.43,0,0,1-3.21,1.2,5.34,5.34,0,0,1-4-1.56q-1.52-1.56-1.52-5a6.57,6.57,0,0,1,1.68-4.92A6.2,6.2,0,0,1,69,20.21q4.55,0,4.54,5.37H67.37c0,.2,0,.48,0,.87a5.39,5.39,0,0,0,.79,3.29A2.5,2.5,0,0,0,70.1,30.72Zm-1.25-10c-.89,0-1.42,1.46-1.58,4.37h2.78A12.74,12.74,0,0,0,69.77,22C69.57,21.17,69.27,20.76,68.85,20.76Zm9,12.41a3.05,3.05,0,0,1-2.32-.82,2.94,2.94,0,0,1-.77-2.09,2.73,2.73,0,0,1,.55-1.77,4,4,0,0,1,1.34-1.11,16.67,16.67,0,0,1,2-.79,10.4,10.4,0,0,0,1.89-.79,1.13,1.13,0,0,0,.6-1V22.66a2.52,2.52,0,0,0-.38-1.37,1.45,1.45,0,0,0-1.32-.6A2.29,2.29,0,0,0,78,21.1a2.26,2.26,0,0,1,1.2.86,2,2,0,0,1,.41,1.25A1.88,1.88,0,0,1,79,24.72a2.34,2.34,0,0,1-1.58.55,2,2,0,0,1-1.49-.57,2.23,2.23,0,0,1-.53-1.52,2.13,2.13,0,0,1,.36-1.24,3.13,3.13,0,0,1,1.13-1,7.71,7.71,0,0,1,3.84-.77,8.94,8.94,0,0,1,2.28.26,3.32,3.32,0,0,1,1.63.94,2.38,2.38,0,0,1,.62,1.27,9.48,9.48,0,0,1,.17,2.09V31.2a3.52,3.52,0,0,0,.07.82.33.33,0,0,0,.32.21.87.87,0,0,0,.36-.09,4.22,4.22,0,0,0,.36-.27l.24.41a4.43,4.43,0,0,1-3,.89,3.18,3.18,0,0,1-2-.48,1.88,1.88,0,0,1-.63-1.35A3.69,3.69,0,0,1,77.8,33.17Zm2.4-1.92a1.18,1.18,0,0,0,.89-.41V25.78a5.26,5.26,0,0,1-.79.93,5.43,5.43,0,0,0-1,1.23A3.06,3.06,0,0,0,79,29.52C79,30.67,79.39,31.25,80.2,31.25ZM93,30.77a2.44,2.44,0,0,0,.28,1.37,1.34,1.34,0,0,0,1.06.36V33c-1.73-.06-2.86-.1-3.41-.1s-1.74,0-3.6.1v-.5a1.25,1.25,0,0,0,1-.36,2.24,2.24,0,0,0,.32-1.37V17.11a3.16,3.16,0,0,0-.32-1.61,1.09,1.09,0,0,0-1-.5v-.5c.5,0,1,.07,1.49.07A21.34,21.34,0,0,0,93,14.23Zm9-15.1a7.43,7.43,0,0,1,2.21.27,7.63,7.63,0,0,1,1.68.69l.46.24a.82.82,0,0,0,.36.1.37.37,0,0,0,.33-.24,3.14,3.14,0,0,0,.2-.82h.55c-.08,1.15-.12,3.11-.12,5.86h-.55a8.37,8.37,0,0,0-.63-2.62,5.46,5.46,0,0,0-1.44-2,3.11,3.11,0,0,0-2.11-.79,2.57,2.57,0,0,0-1.78.6,2,2,0,0,0-.67,1.63A2.7,2.7,0,0,0,100.9,20,4.53,4.53,0,0,0,102,21.14c.46.37,1.22.92,2.28,1.66a1.45,1.45,0,0,1,.26.17,2.93,2.93,0,0,1,.26.19,21.42,21.42,0,0,1,2.12,1.63,5.74,5.74,0,0,1,1.27,1.63,4.47,4.47,0,0,1,.5,2.16,4,4,0,0,1-.89,2.64,5.12,5.12,0,0,1-2.35,1.59,9.83,9.83,0,0,1-3.29.53,10.46,10.46,0,0,1-2.44-.24,9.37,9.37,0,0,1-1.8-.65,1.74,1.74,0,0,0-.82-.34.38.38,0,0,0-.34.27,2.73,2.73,0,0,0-.19.79H96c.06-1.09.1-3.41.1-7h.55a10.34,10.34,0,0,0,1.2,4.63A3.43,3.43,0,0,0,101,32.62a3.17,3.17,0,0,0,2.08-.63,2.07,2.07,0,0,0,.8-1.73,3.33,3.33,0,0,0-.87-2.32,12.88,12.88,0,0,0-2.64-2.19,26.53,26.53,0,0,1-2.3-1.68,6.35,6.35,0,0,1-1.42-1.65,4.34,4.34,0,0,1-.55-2.21,3.84,3.84,0,0,1,.82-2.52,4.64,4.64,0,0,1,2.16-1.51A8.42,8.42,0,0,1,102.05,15.67Zm13.52,4.87h2.35V21h-2.35V31a1.07,1.07,0,0,0,.17.68.73.73,0,0,0,.55.19,1.61,1.61,0,0,0,.65-.17,1.88,1.88,0,0,0,.65-.53l.36.29a3.7,3.7,0,0,1-3.41,1.9,3.36,3.36,0,0,1-2.47-.82,2.55,2.55,0,0,1-.68-1.25,12.24,12.24,0,0,1-.14-2.09V21h-1.82v-.48h1.82V17.71a10.37,10.37,0,0,0,2.33-.24,7.5,7.5,0,0,0,2-.81Zm9.11-.33a6.27,6.27,0,0,1,4.56,1.56c1.08,1,1.61,2.69,1.61,5s-.53,4-1.61,5a7.52,7.52,0,0,1-9.12,0c-1.07-1-1.6-2.7-1.6-5s.53-4,1.6-5A6.31,6.31,0,0,1,124.68,20.21Zm0,.48c-.51,0-.92.5-1.22,1.51a17.21,17.21,0,0,0-.46,4.58,17.24,17.24,0,0,0,.46,4.59c.3,1,.71,1.49,1.22,1.49s.93-.5,1.23-1.49a17.33,17.33,0,0,0,.45-4.59,17.29,17.29,0,0,0-.45-4.58C125.61,21.19,125.2,20.69,124.68,20.69Zm16.19-.48a1.91,1.91,0,0,1,1.68.72,2.81,2.81,0,0,1,.52,1.7,2.37,2.37,0,0,1-.62,1.73,2.08,2.08,0,0,1-1.58.62,2.47,2.47,0,0,1-1.59-.45,1.6,1.6,0,0,1-.55-1.27A2.57,2.57,0,0,1,140,21a1.7,1.7,0,0,0-.76.17,2.4,2.4,0,0,0-1,.87,2.14,2.14,0,0,0-.41,1.27v7.2a2.09,2.09,0,0,0,.46,1.56,2.48,2.48,0,0,0,1.6.41V33l-.52,0c-1.68,0-2.8-.08-3.36-.08s-1.61,0-3.34.08l-.5,0v-.5a1.26,1.26,0,0,0,1-.36,2.25,2.25,0,0,0,.31-1.37V23.16a3.15,3.15,0,0,0-.31-1.61,1.1,1.1,0,0,0-1-.5v-.51c.51.05,1,.08,1.48.08a22.07,22.07,0,0,0,4.18-.34V22A3.2,3.2,0,0,1,140.87,20.21Zm10,10.51a3.47,3.47,0,0,0,2.91-1.61l.41.15a6.78,6.78,0,0,1-1.8,2.88,4.47,4.47,0,0,1-3.22,1.2,5.36,5.36,0,0,1-4-1.56q-1.52-1.56-1.51-5a6.57,6.57,0,0,1,1.68-4.92,6.16,6.16,0,0,1,4.48-1.65q4.54,0,4.54,5.37h-6.19c0,.2,0,.48,0,.87a5.31,5.31,0,0,0,.8,3.29A2.48,2.48,0,0,0,150.91,30.72Zm-1.24-10c-.9,0-1.43,1.46-1.59,4.37h2.79a12.68,12.68,0,0,0-.29-3.15C150.39,21.17,150.08,20.76,149.67,20.76Z" style="fill:#484848"/>
</svg>